<svg xmlns="http://www.w3.org/2000/svg" xmlns:xlink="http://www.w3.org/1999/xlink"><symbol viewBox="0 0 20 20" id="check"><path d="M8.294 16.998c-.435 0-.847-.203-1.111-.553L3.61 11.724a1.392 1.392 0 0 1 .27-1.951 1.392 1.392 0 0 1 1.953.27l2.351 3.104 5.911-9.492a1.396 1.396 0 0 1 1.921-.445c.653.406.854 1.266.446 1.92L9.478 16.34a1.39 1.39 0 0 1-1.12.656c-.022.002-.042.002-.064.002z"/></symbol><symbol viewBox="0 0 20 20" id="chevron-down"><path d="M4.516 7.548c.436-.446 1.043-.481 1.576 0L10 11.295l3.908-3.747c.533-.481 1.141-.446 1.574 0 .436.445.408 1.197 0 1.615-.406.418-4.695 4.502-4.695 4.502a1.095 1.095 0 0 1-1.576 0S4.924 9.581 4.516 9.163c-.409-.418-.436-1.17 0-1.615z"/></symbol><symbol viewBox="0 0 20 20" id="chevron-left"><path d="M12.452 4.516c.446.436.481 1.043 0 1.576L8.705 10l3.747 3.908c.481.533.446 1.141 0 1.574-.445.436-1.197.408-1.615 0-.418-.406-4.502-4.695-4.502-4.695a1.095 1.095 0 0 1 0-1.576s4.084-4.287 4.502-4.695c.418-.409 1.17-.436 1.615 0z"/></symbol><symbol viewBox="0 0 20 20" id="chevron-right"><path d="M9.163 4.516c.418.408 4.502 4.695 4.502 4.695a1.095 1.095 0 0 1 0 1.576s-4.084 4.289-4.502 4.695c-.418.408-1.17.436-1.615 0-.446-.434-.481-1.041 0-1.574L11.295 10 7.548 6.092c-.481-.533-.446-1.141 0-1.576.445-.436 1.197-.409 1.615 0z"/></symbol><symbol viewBox="0 0 20 20" id="chevron-thin-down"><path d="M17.418 6.109a.697.697 0 0 1 .979 0 .68.68 0 0 1 0 .969l-7.908 7.83a.697.697 0 0 1-.979 0l-7.908-7.83a.68.68 0 0 1 0-.969.697.697 0 0 1 .979 0L10 13.25l7.418-7.141z"/></symbol><symbol viewBox="0 0 20 20" id="chevron-thin-left"><path d="M13.891 17.418a.697.697 0 0 1 0 .979.68.68 0 0 1-.969 0l-7.83-7.908a.697.697 0 0 1 0-.979l7.83-7.908a.68.68 0 0 1 .969 0 .697.697 0 0 1 0 .979L6.75 10l7.141 7.418z"/></symbol><symbol viewBox="0 0 20 20" id="chevron-thin-right"><path d="M13.25 10L6.109 2.58a.697.697 0 0 1 0-.979.68.68 0 0 1 .969 0l7.83 7.908a.697.697 0 0 1 0 .979l-7.83 7.908a.68.68 0 0 1-.969 0 .697.697 0 0 1 0-.979L13.25 10z"/></symbol><symbol viewBox="0 0 20 20" id="chevron-thin-up"><path d="M2.582 13.891c-.272.268-.709.268-.979 0s-.271-.701 0-.969l7.908-7.83a.697.697 0 0 1 .979 0l7.908 7.83a.68.68 0 0 1 0 .969.695.695 0 0 1-.978 0L10 6.75l-7.418 7.141z"/></symbol><symbol viewBox="0 0 20 20" id="chevron-up"><path d="M15.484 12.452c-.436.446-1.043.481-1.576 0L10 8.705l-3.908 3.747c-.533.481-1.141.446-1.574 0-.436-.445-.408-1.197 0-1.615.406-.418 4.695-4.502 4.695-4.502a1.095 1.095 0 0 1 1.576 0s4.287 4.084 4.695 4.502c.409.418.436 1.17 0 1.615z"/></symbol><symbol viewBox="0 0 20 20" id="cross"><path d="M14.348 14.849a1.2 1.2 0 0 1-1.697 0L10 11.819l-2.651 3.029a1.2 1.2 0 1 1-1.697-1.697l2.758-3.15-2.759-3.152a1.2 1.2 0 1 1 1.697-1.697L10 8.183l2.651-3.031a1.2 1.2 0 1 1 1.697 1.697l-2.758 3.152 2.758 3.15a1.2 1.2 0 0 1 0 1.698z"/></symbol><symbol viewBox="0 0 20 20" id="link"><path d="M7.859 14.691l-.81.805a1.814 1.814 0 0 1-2.545 0 1.762 1.762 0 0 1 0-2.504l2.98-2.955c.617-.613 1.779-1.515 2.626-.675a.992.992 0 1 0 1.397-1.407c-1.438-1.428-3.566-1.164-5.419.675l-2.98 2.956A3.719 3.719 0 0 0 2 14.244a3.72 3.72 0 0 0 1.108 2.658 3.779 3.779 0 0 0 2.669 1.096c.967 0 1.934-.365 2.669-1.096l.811-.805a.988.988 0 0 0 .005-1.4.995.995 0 0 0-1.403-.006zm9.032-11.484c-1.547-1.534-3.709-1.617-5.139-.197l-1.009 1.002a.99.99 0 1 0 1.396 1.406l1.01-1.001c.74-.736 1.711-.431 2.346.197.336.335.522.779.522 1.252s-.186.917-.522 1.251l-3.18 3.154c-1.454 1.441-2.136.766-2.427.477a.99.99 0 1 0-1.396 1.406c.668.662 1.43.99 2.228.99.977 0 2.01-.492 2.993-1.467l3.18-3.153A3.732 3.732 0 0 0 18 5.866a3.726 3.726 0 0 0-1.109-2.659z"/></symbol><symbol viewBox="0 0 20 20" id="mail"><path d="M1.574 5.286l7.5 4.029c.252.135.578.199.906.199.328 0 .654-.064.906-.199l7.5-4.029c.489-.263.951-1.286.054-1.286H1.521c-.897 0-.435 1.023.053 1.286zm17.039 2.203l-7.727 4.027c-.34.178-.578.199-.906.199s-.566-.021-.906-.199-7.133-3.739-7.688-4.028C.996 7.284 1 7.523 1 7.707V15c0 .42.566 1 1 1h16c.434 0 1-.58 1-1V7.708c0-.184.004-.423-.387-.219z"/></symbol><symbol viewBox="0 0 20 20" id="minus"><path d="M16 10c0 .553-.048 1-.601 1H4.601C4.049 11 4 10.553 4 10c0-.553.049-1 .601-1H15.4c.552 0 .6.447.6 1z"/></symbol><symbol viewBox="0 0 20 20" id="phone"><path d="M11.229 11.229c-1.583 1.582-3.417 3.096-4.142 2.371-1.037-1.037-1.677-1.941-3.965-.102-2.287 1.838-.53 3.064.475 4.068 1.16 1.16 5.484.062 9.758-4.211 4.273-4.274 5.368-8.598 4.207-9.758-1.005-1.006-2.225-2.762-4.063-.475-1.839 2.287-.936 2.927.103 3.965.722.725-.791 2.559-2.373 4.142z"/></symbol><symbol viewBox="0 0 20 20" id="plus"><path d="M16 10c0 .553-.048 1-.601 1H11v4.399c0 .552-.447.601-1 .601-.553 0-1-.049-1-.601V11H4.601C4.049 11 4 10.553 4 10c0-.553.049-1 .601-1H9V4.601C9 4.048 9.447 4 10 4c.553 0 1 .048 1 .601V9h4.399c.553 0 .601.447.601 1z"/></symbol><symbol viewBox="0 0 20 20" id="triangle-down"><path d="M5 6h10l-5 9-5-9z"/></symbol><symbol viewBox="0 0 20 20" id="triangle-left"><path d="M14 5v10l-9-5 9-5z"/></symbol><symbol viewBox="0 0 20 20" id="triangle-right"><path d="M15 10l-9 5V5l9 5z"/></symbol><symbol viewBox="0 0 20 20" id="triangle-up"><path d="M15 14H5l5-9 5 9z"/></symbol></svg>