<svg id="Logo" xmlns="http://www.w3.org/2000/svg" viewBox="-632 691.4 147.9 42.9"><style>.st0{fill:#0c0c0c}</style><path id="e" class="st0" d="M-496.7 720.8h1.5c3.5-.2 6.5-1.5 8.9-3.7 1.6-1.5 2.3-3 2.2-3.4 0-.4-1.4-1.5-2-1.6-.3 0-.6.3-.9.6-.1.1-.2.3-.4.4-2.2 2.1-4.8 3.3-7.5 3.5h-.7c-2.8-.1-4.9-1.9-5.8-4.8l-.1-.2h.2c10.4-.8 13.9-7.2 13.7-11-.3-4.9-4.5-6.8-8-6.9h-1.3c-3.6.2-6.8 2-9 4.9-2.2 2.9-3.3 6.9-3.1 11 .5 4.9 3.9 10.9 12.3 11.2zm-5.1-13.3c.2-4.1 1.4-6.5 2.4-7.8 1.1-1.5 2.5-2.3 3.7-2.3.9 0 1.6.3 2 1 .7 1.1.5 2.8-.1 4-1.9 4.1-5.7 5.1-7.8 5.3h-.2v-.2z"/><path id="g_1_" class="st0" d="M-571.3 734.3c4.2 0 7.8-.9 10.4-2.5 2.6-1.6 3.9-3.9 3.9-6.6 0-4.8-4.8-6.1-9.1-6.7l-3.5-.3c-4-.6-5-.8-5-1.7 0-.4.3-.8.9-1.3l.1-.1h.1c.9.2 1.9.3 2.8.4 3 0 5.9-1.1 8-3.2 2.1-2.1 3.3-4.8 3.3-7.8 0-2.8-1.1-5.5-3.1-7.6l-.2-.2.2-.1c.9-.5 2-.7 2.9-.7.5 0 .9.1 1.2.2.1 0 .3.1.4.1.4 0 .8-.2 1-.6.4-.6.5-1.7.1-2.7-.3-.9-1.3-1.5-2.7-1.5-.8 0-1.6.2-2.4.5-1.4.6-2.7 1.5-3.8 2.7l-.1.1-.1-.1c-1.4-.7-2.9-1-4.5-1.1h-.4c-6.2 0-11.3 4.9-11.3 11 0 3.6 1.8 7 4.8 9l.2.2-.2.1c-2.3 1.3-3.6 2.9-3.6 4.4 0 1 .5 2 1.3 2.8l.2.2-.2.1c-3.3 2-4.8 3.9-4.8 6.3.2 4.1 5.2 6.7 13.2 6.7zm.7-36.9c2.3.1 4.1 3.2 4.1 7.1 0 3.9-1.8 7.1-4.1 7.1h-.1c-2.2-.1-4-3.2-4-7.1.1-3.9 1.9-7.1 4.1-7.1zm-4.6 25.4h.1c1.3.3 2.1.4 3.9.7l3.6.5c3.9.6 4.5 1.7 4.5 2.7 0 2.1-3.1 3.6-7.5 3.6h-.8c-4.2-.1-6.7-1.4-6.7-3.4.2-1.5 1-2.7 2.9-4.1z"/><path id="a" class="st0" d="M-535.7 720.7c.1 0 .2 0 .3-.2.7-.9 1.4-4 1.3-4.3 0-.1-.2-.2-.4-.3-.5-.3-1.2-.8-1.3-1.8 0-1.5-.2-10.5-.2-10.9 0-4.5-1.4-7.3-4.3-8.6-1.5-.7-3.7-1.1-6-1.1-8.8.1-9.7 4-9.7 5.6 0 .4 0 .8.2 1.2.5 1.6 2 2.7 3.7 2.7.4 0 .7-.1 1.1-.2.6-.2 1-.8 1-1.4 0-1.5.3-2.6.9-3.4.6-.8 1.6-1.2 2.8-1.2h.3c2.4.1 3.5 1.5 3.5 4.5v2h-.2c-10.6 1-15.6 4.3-15.6 10.2 0 4.4 3 7.2 7.5 7.2 3.1 0 6.1-1.6 8.4-4.3l.2-.2.1.3c.8 2.6 4.3 4.2 6.4 4.2zm-6.7-8.3c-1.7 1.7-4.2 3.4-6.1 3.4h-.2c-1.8-.1-2.9-1.1-2.9-2.9s1.1-5.1 9.1-6.1h.2l-.1 5.6z"/><path id="g" class="st0" d="M-523.2 734.3c8.5 0 14.3-3.7 14.3-9.1 0-4.8-4.8-6.1-9.1-6.7l-3.5-.3c-4-.6-5-.8-5-1.7 0-.4.3-.8.9-1.3l.1-.1h.1c.9.2 1.9.4 2.8.4 3 0 5.9-1.1 8-3.2 2.1-2.1 3.3-4.8 3.3-7.8 0-2.8-1.1-5.5-3.1-7.6l-.2-.2.2-.1c.9-.5 2-.7 2.9-.7.5 0 .9.1 1.2.2.1 0 .3.1.4.1.4 0 .8-.2 1-.6.4-.6.5-1.7.1-2.7-.3-.9-1.3-1.5-2.7-1.5-.8 0-1.6.2-2.4.5-1.4.6-2.7 1.5-3.8 2.7l-.1.1-.1-.1c-1.4-.7-2.9-1-4.5-1.1h-.4c-6.2 0-11.3 4.9-11.3 11 0 3.6 1.8 7 4.8 9l.2.2-.2.1c-2.3 1.3-3.6 2.9-3.6 4.4 0 1 .5 2 1.3 2.8l.2.2-.2.1c-3.3 2-4.8 3.9-4.8 6.3.2 4.1 5.2 6.7 13.2 6.7zm.7-36.9c2.3.1 4.1 3.2 4.1 7.1 0 3.9-1.8 7.1-4.1 7.1h-.1c-2.2-.1-4-3.2-4-7.1 0-3.9 1.9-7.1 4.1-7.1zm-4.6 25.4c1.3.3 2.2.4 4 .7l3.6.5c3.9.6 4.5 1.7 4.5 2.7 0 2.1-3.1 3.6-7.5 3.6h-.8c-4.2-.1-6.7-1.4-6.7-3.4.2-1.4 1-2.7 2.9-4.1z"/><path id="en" class="st0" d="M-591.2 703.9v14.7c0 .8.6 1.4 1.4 1.4h3.9c.8 0 1.4-.6 1.4-1.4v-17.1c0-3.6-1-7.8-5.9-8h-.3c-4.2 0-7.1 2.7-9 4.7l-.2.3-.1-.3c-.2-1.3-.7-3.3-1.2-3.8 0 0-.1 0-.3-.1-1.5-.1-5.5 1.4-5.6 1.9 0 .2 0 .3.1.5.1.3.3.7.4 1.7.2 1.4 0 9.8 0 10.1-3 5.1-7.3 8-11.9 8-3.1 0-5.4-2-6.2-5.2v-.2h.2c10.5-.1 14.4-6.3 14.4-10.2 0-5-4.2-7.4-8.4-7.5h-.5c-7.4 0-13 6.5-13 15.1 0 8.3 6.5 12.1 12.8 12.1 5 0 9-2.1 12.3-6.4l.3-.4v4.7c0 .8.6 1.4 1.4 1.4h3.9c.8 0 1.4-.6 1.4-1.4v-15.1c1.2-1.7 3.7-4.6 5.8-4.6 2.1 0 2.9 1.5 2.9 5.1zm-33.7 3.8v-.2c.2-4.1 1.4-6.5 2.4-7.8 1.1-1.5 2.5-2.3 3.7-2.3.9 0 1.6.3 2 1 .7 1.1.5 2.8-.1 4-1.9 4.1-5.7 5.1-7.8 5.3h-.2z"/></svg>