<?xml version="1.0" encoding="iso-8859-1"?>
<!-- Generator: Adobe Illustrator 16.0.0, SVG Export Plug-In . SVG Version: 6.00 Build 0)  -->
<!DOCTYPE svg PUBLIC "-//W3C//DTD SVG 1.1//EN" "http://www.w3.org/Graphics/SVG/1.1/DTD/svg11.dtd">
<svg version="1.1" id="Capa_1" xmlns="http://www.w3.org/2000/svg" xmlns:xlink="http://www.w3.org/1999/xlink" x="0px" y="0px"
	 width="415.582px" height="415.582px" viewBox="0 0 415.582 415.582" style="enable-background:new 0 0 415.582 415.582;"
	 xml:space="preserve">
<g>
	<path d="M411.47,96.426l-46.319-46.32c-5.482-5.482-14.371-5.482-19.853,0L152.348,243.058l-82.066-82.064
		c-5.48-5.482-14.37-5.482-19.851,0l-46.319,46.32c-5.482,5.481-5.482,14.37,0,19.852l138.311,138.31
		c2.741,2.742,6.334,4.112,9.926,4.112c3.593,0,7.186-1.37,9.926-4.112L411.47,116.277c2.633-2.632,4.111-6.203,4.111-9.925
		C415.582,102.628,414.103,99.059,411.47,96.426z"/>
</g>
<g>
</g>
<g>
</g>
<g>
</g>
<g>
</g>
<g>
</g>
<g>
</g>
<g>
</g>
<g>
</g>
<g>
</g>
<g>
</g>
<g>
</g>
<g>
</g>
<g>
</g>
<g>
</g>
<g>
</g>
</svg>
