<svg id="Layer_1" xmlns="http://www.w3.org/2000/svg" viewBox="0 0 600 600"><style>.st0{fill:#010101}</style><path class="st0" d="M294.8 599.8c10.6.4 21.3.2 31.9-.5 77.5-4.8 143.6-32.1 196.5-81.1 35-32.4 49.5-65.4 49.2-75.1-.3-8-30.8-33.8-43.3-34.2-7.3 0-12.6 6-18.8 12.9-2.5 2.8-5 5.6-7.9 8.3-48.9 46.2-106.3 72.7-165.9 76.4-5 .3-10.1.4-14.9.2-61.3-2-108-40.8-128.2-106.3l-1.3-4.4 4.6-.4C426 378.2 503.1 237.5 497.8 152.9 491 44.2 399.1 2.7 322.4.2c-9.3-.3-18.9-.2-28.7.5-78.8 4.8-149.2 43.1-198.1 107.5C46.5 172.9 22.7 259 28.4 350.7c7 111.1 80.9 243 266.4 249.1zM182.1 308.9c5-90.3 31-143.1 51.8-171.4 23.6-32.1 54.2-51.2 81.9-51.2 20.4-.1 34.9 7.2 43.8 21.2 15 23.4 10.6 62.4-1.5 88.8-41 89.2-125.3 111.3-172 116.6l-4.3.5.3-4.5z"/></svg>