<?xml version="1.0" encoding="utf-8"?>
<!-- Generated by IcoMoon.io -->
<!DOCTYPE svg PUBLIC "-//W3C//DTD SVG 1.1//EN" "http://www.w3.org/Graphics/SVG/1.1/DTD/svg11.dtd">
<svg version="1.1" xmlns="http://www.w3.org/2000/svg" xmlns:xlink="http://www.w3.org/1999/xlink" width="32" height="32" viewBox="0 0 32 32">
<path d="M28.943 23.999c-0-0-0-0-0-0l-7.999-7.999 7.999-7.999c0-0 0-0 0-0 0.086-0.086 0.148-0.187 0.188-0.294 0.109-0.293 0.047-0.636-0.189-0.871l-3.779-3.779c-0.236-0.236-0.578-0.298-0.871-0.188-0.107 0.040-0.208 0.102-0.294 0.188 0 0-0 0-0 0l-7.999 7.999-7.999-7.999c-0-0-0-0-0-0-0.086-0.086-0.187-0.148-0.294-0.188-0.293-0.109-0.636-0.047-0.871 0.188l-3.779 3.779c-0.236 0.236-0.298 0.578-0.189 0.871 0.040 0.107 0.102 0.208 0.188 0.294 0 0 0 0 0 0l7.999 7.999-7.999 7.999c-0 0-0 0-0 0-0.086 0.086-0.148 0.187-0.188 0.294-0.109 0.293-0.047 0.636 0.189 0.871l3.779 3.779c0.236 0.236 0.578 0.298 0.871 0.189 0.107-0.040 0.208-0.102 0.294-0.188 0-0 0-0 0-0l7.999-7.999 7.999 7.999c0 0 0 0 0 0 0.086 0.086 0.187 0.148 0.294 0.188 0.293 0.109 0.636 0.047 0.871-0.189l3.779-3.779c0.236-0.236 0.298-0.578 0.189-0.871-0.040-0.107-0.102-0.208-0.188-0.294z" fill="#fe1154"></path>
</svg>
